STARTFONT 2.1
FONT -FontForge-Hanalei-Book-R-Normal--16-160-72-72-P-80-ISO10646-1
SIZE 16 72 72
FONTBOUNDINGBOX 21 21 -1 -4
COMMENT "Generated by fontforge, http://fontforge.sourceforge.net"
COMMENT "Copyright (c) 2012 by Brian J. Bonislawsky DBA Astigmatic (AOETI) (astigma@astigmatic.com), with ReservedFont Name "Hanalei""
STARTPROPERTIES 39
FOUNDRY "FontForge"
FAMILY_NAME "Hanalei"
WEIGHT_NAME "Book"
SLANT "R"
SETWIDTH_NAME "Normal"
ADD_STYLE_NAME ""
PIXEL_SIZE 16
POINT_SIZE 160
RESOLUTION_X 72
RESOLUTION_Y 72
SPACING "P"
AVERAGE_WIDTH 80
CHARSET_REGISTRY "ISO10646"
CHARSET_ENCODING "1"
FONTNAME_REGISTRY ""
CHARSET_COLLECTIONS "ISO8859-2 ISO8859-9 ISO8859-4 ISO10646-1"
FONT_NAME "Hanalei-Regular"
FACE_NAME "Hanalei"
COPYRIGHT "Copyright (c) 2012 by Brian J. Bonislawsky DBA Astigmatic (AOETI) (astigma@astigmatic.com), with ReservedFont Name "Hanalei""
FONT_VERSION "1.000"
FONT_ASCENT 13
FONT_DESCENT 3
UNDERLINE_POSITION -2
UNDERLINE_THICKNESS 1
X_HEIGHT 10
CAP_HEIGHT 10
RAW_ASCENT 799
RAW_DESCENT 200
NORM_SPACE 3
RELATIVE_WEIGHT 40
RELATIVE_SETWIDTH 50
SUPERSCRIPT_X 0
SUPERSCRIPT_Y 7
SUPERSCRIPT_SIZE 10
SUBSCRIPT_X 0
SUBSCRIPT_Y 2
SUBSCRIPT_SIZE 10
AVG_LOWERCASE_WIDTH 86
AVG_UPPERCASE_WIDTH 84
ENDPROPERTIES
CHARS 366
STARTCHAR space
ENCODING 32
SWIDTH 200 0
DWIDTH 3 0
BBX 1 1 0 0
BITMAP
00
ENDCHAR
STARTCHAR exclam
ENCODING 33
SWIDTH 257 0
DWIDTH 4 0
BBX 3 11 1 0
BITMAP
E0
A0
A0
E0
A0
A0
A0
C0
00
C0
C0
ENDCHAR
STARTCHAR quotedbl
ENCODING 34
SWIDTH 476 0
DWIDTH 8 0
BBX 7 7 0 5
BITMAP
66
9A
9A
FE
9A
9A
6E
ENDCHAR
STARTCHAR numbersign
ENCODING 35
SWIDTH 1076 0
DWIDTH 17 0
BBX 16 11 1 0
BITMAP
E77E
B54F
B579
FF55
AD55
A55B
EF69
B57E
AB3C
A942
EF3E
ENDCHAR
STARTCHAR dollar
ENCODING 36
SWIDTH 453 0
DWIDTH 7 0
BBX 7 15 0 -2
BITMAP
10
28
2C
3A
52
8C
B8
54
22
1A
76
8C
78
28
38
ENDCHAR
STARTCHAR percent
ENCODING 37
SWIDTH 889 0
DWIDTH 14 0
BBX 14 11 0 0
BITMAP
F980
AD40
B680
B780
D680
7AF8
03AC
05B4
05B4
0554
027C
ENDCHAR
STARTCHAR ampersand
ENCODING 38
SWIDTH 627 0
DWIDTH 10 0
BBX 10 12 0 0
BITMAP
1800
3780
4B80
2C80
2900
1600
3200
4FC0
9A40
B5C0
DC80
E700
ENDCHAR
STARTCHAR quotesingle
ENCODING 39
SWIDTH 246 0
DWIDTH 4 0
BBX 4 7 0 5
BITMAP
60
90
90
F0
90
90
60
ENDCHAR
STARTCHAR parenleft
ENCODING 40
SWIDTH 387 0
DWIDTH 6 0
BBX 6 13 0 -1
BITMAP
18
24
28
50
90
A0
A0
D0
58
28
24
14
0C
ENDCHAR
STARTCHAR parenright
ENCODING 41
SWIDTH 386 0
DWIDTH 6 0
BBX 6 13 0 -1
BITMAP
70
90
48
38
24
14
14
2C
68
50
90
A0
60
ENDCHAR
STARTCHAR asterisk
ENCODING 42
SWIDTH 517 0
DWIDTH 8 0
BBX 8 8 0 4
BITMAP
08
18
5B
B5
66
3C
5A
24
ENDCHAR
STARTCHAR plus
ENCODING 43
SWIDTH 458 0
DWIDTH 7 0
BBX 7 7 0 2
BITMAP
18
28
7E
8A
96
68
38
ENDCHAR
STARTCHAR comma
ENCODING 44
SWIDTH 228 0
DWIDTH 4 0
BBX 3 4 0 -2
BITMAP
60
A0
A0
C0
ENDCHAR
STARTCHAR hyphen
ENCODING 45
SWIDTH 465 0
DWIDTH 7 0
BBX 7 3 0 4
BITMAP
7E
8A
FE
ENDCHAR
STARTCHAR period
ENCODING 46
SWIDTH 202 0
DWIDTH 3 0
BBX 3 2 0 0
BITMAP
E0
E0
ENDCHAR
STARTCHAR slash
ENCODING 47
SWIDTH 453 0
DWIDTH 7 0
BBX 7 11 0 0
BITMAP
0C
0A
12
1C
24
28
38
48
50
90
60
ENDCHAR
STARTCHAR zero
ENCODING 48
SWIDTH 646 0
DWIDTH 10 0
BBX 11 12 0 0
BITMAP
0800
1600
2600
2900
5E80
D240
A120
92C0
5D80
2900
1200
0C00
ENDCHAR
STARTCHAR one
ENCODING 49
SWIDTH 400 0
DWIDTH 6 0
BBX 6 11 0 0
BITMAP
3C
54
94
AC
54
14
14
1C
14
14
3C
ENDCHAR
STARTCHAR two
ENCODING 50
SWIDTH 502 0
DWIDTH 8 0
BBX 8 11 0 0
BITMAP
38
6C
92
A9
4F
13
2C
44
4E
D1
FF
ENDCHAR
STARTCHAR three
ENCODING 51
SWIDTH 456 0
DWIDTH 7 0
BBX 7 11 0 0
BITMAP
F8
84
7E
34
58
68
64
1E
72
9E
F0
ENDCHAR
STARTCHAR four
ENCODING 52
SWIDTH 514 0
DWIDTH 8 0
BBX 8 11 0 0
BITMAP
1E
16
2A
5E
5A
9F
A9
7F
0A
0A
0E
ENDCHAR
STARTCHAR five
ENCODING 53
SWIDTH 500 0
DWIDTH 8 0
BBX 8 11 0 0
BITMAP
7E
A9
9E
A0
DE
4D
7D
05
7F
91
FE
ENDCHAR
STARTCHAR six
ENCODING 54
SWIDTH 520 0
DWIDTH 8 0
BBX 8 11 0 0
BITMAP
38
28
28
68
5C
52
75
9F
99
A2
FC
ENDCHAR
STARTCHAR seven
ENCODING 55
SWIDTH 423 0
DWIDTH 7 0
BBX 7 11 0 0
BITMAP
FE
92
EE
1C
14
14
34
28
28
48
78
ENDCHAR
STARTCHAR eight
ENCODING 56
SWIDTH 527 0
DWIDTH 8 0
BBX 8 11 0 0
BITMAP
7F
8B
FD
49
3A
24
56
5A
99
A5
7F
ENDCHAR
STARTCHAR nine
ENCODING 57
SWIDTH 500 0
DWIDTH 8 0
BBX 8 11 0 0
BITMAP
0E
F3
95
AD
D2
52
34
2C
28
48
38
ENDCHAR
STARTCHAR colon
ENCODING 58
SWIDTH 245 0
DWIDTH 4 0
BBX 2 8 1 0
BITMAP
C0
C0
00
00
00
00
C0
C0
ENDCHAR
STARTCHAR semicolon
ENCODING 59
SWIDTH 270 0
DWIDTH 4 0
BBX 4 10 0 -2
BITMAP
70
50
20
00
00
00
60
90
A0
C0
ENDCHAR
STARTCHAR less
ENCODING 60
SWIDTH 445 0
DWIDTH 7 0
BBX 7 9 0 1
BITMAP
0C
12
76
88
F0
88
76
12
0C
ENDCHAR
STARTCHAR equal
ENCODING 61
SWIDTH 484 0
DWIDTH 8 0
BBX 6 7 1 2
BITMAP
FC
94
FC
00
FC
94
FC
ENDCHAR
STARTCHAR greater
ENCODING 62
SWIDTH 445 0
DWIDTH 7 0
BBX 7 9 0 1
BITMAP
60
98
54
22
1A
26
D4
98
60
ENDCHAR
STARTCHAR question
ENCODING 63
SWIDTH 455 0
DWIDTH 7 0
BBX 7 11 0 0
BITMAP
F0
8E
72
1A
24
68
50
50
20
50
70
ENDCHAR
STARTCHAR at
ENCODING 64
SWIDTH 812 0
DWIDTH 13 0
BBX 12 13 1 -1
BITMAP
7F00
92C0
FD40
DFE0
E4A0
DBA0
EB60
BD50
E2D0
DFE0
F800
D400
2800
ENDCHAR
STARTCHAR A
ENCODING 65
SWIDTH 507 0
DWIDTH 8 0
BBX 8 11 0 0
BITMAP
38
2C
2C
7A
4E
5A
7F
99
AF
B5
E7
ENDCHAR
STARTCHAR B
ENCODING 66
SWIDTH 533 0
DWIDTH 9 0
BBX 8 13 0 -1
BITMAP
30
4C
67
59
77
59
56
F9
9D
7B
4E
D8
20
ENDCHAR
STARTCHAR C
ENCODING 67
SWIDTH 515 0
DWIDTH 8 0
BBX 8 11 0 0
BITMAP
7F
49
7F
70
50
50
70
90
9F
99
7F
ENDCHAR
STARTCHAR D
ENCODING 68
SWIDTH 520 0
DWIDTH 8 0
BBX 8 12 0 0
BITMAP
10
E8
64
56
79
55
53
FD
96
52
9C
F0
ENDCHAR
STARTCHAR E
ENCODING 69
SWIDTH 490 0
DWIDTH 8 0
BBX 8 11 0 0
BITMAP
FF
59
5E
70
5C
52
FC
90
5E
99
FE
ENDCHAR
STARTCHAR F
ENCODING 70
SWIDTH 475 0
DWIDTH 8 0
BBX 8 11 0 0
BITMAP
FF
59
5E
70
5C
52
FC
90
50
90
F0
ENDCHAR
STARTCHAR G
ENCODING 71
SWIDTH 557 0
DWIDTH 9 0
BBX 9 11 0 0
BITMAP
7F00
4900
7F00
7000
5300
5480
7280
9380
9C80
9A80
7F80
ENDCHAR
STARTCHAR H
ENCODING 72
SWIDTH 611 0
DWIDTH 10 0
BBX 10 11 0 0
BITMAP
F780
5280
5280
7380
5280
5340
FE40
93C0
5E80
9480
F380
ENDCHAR
STARTCHAR I
ENCODING 73
SWIDTH 266 0
DWIDTH 4 0
BBX 4 11 0 0
BITMAP
F0
50
50
70
50
50
F0
90
50
90
F0
ENDCHAR
STARTCHAR J
ENCODING 74
SWIDTH 484 0
DWIDTH 8 0
BBX 7 12 0 -1
BITMAP
0E
0A
0A
0E
0A
4A
AE
9A
6A
26
16
18
ENDCHAR
STARTCHAR K
ENCODING 75
SWIDTH 541 0
DWIDTH 9 0
BBX 9 11 0 0
BITMAP
F300
5280
5C80
7500
5200
5400
FA00
9D00
5900
9480
F700
ENDCHAR
STARTCHAR L
ENCODING 76
SWIDTH 467 0
DWIDTH 7 0
BBX 8 11 0 0
BITMAP
F0
50
50
70
50
50
F0
90
5F
91
FF
ENDCHAR
STARTCHAR M
ENCODING 77
SWIDTH 733 0
DWIDTH 12 0
BBX 12 11 0 0
BITMAP
79C0
4940
5A40
77A0
5EE0
54A0
72A0
9F60
A950
A550
E670
ENDCHAR
STARTCHAR N
ENCODING 78
SWIDTH 598 0
DWIDTH 10 0
BBX 9 11 0 0
BITMAP
F380
5280
5A80
7B80
5680
5280
F780
9A80
5580
9480
F780
ENDCHAR
STARTCHAR O
ENCODING 79
SWIDTH 612 0
DWIDTH 10 0
BBX 10 11 0 0
BITMAP
7F80
4880
7E80
7380
5280
5280
7380
9280
9D80
94C0
7F80
ENDCHAR
STARTCHAR P
ENCODING 80
SWIDTH 513 0
DWIDTH 8 0
BBX 8 12 0 0
BITMAP
30
4C
47
79
77
99
5A
D4
B8
90
90
F0
ENDCHAR
STARTCHAR Q
ENCODING 81
SWIDTH 612 0
DWIDTH 10 0
BBX 10 13 0 -2
BITMAP
7F80
4880
7E80
7380
5280
5280
7380
9280
9D80
94C0
6F80
1200
1E00
ENDCHAR
STARTCHAR R
ENCODING 82
SWIDTH 532 0
DWIDTH 9 0
BBX 9 12 0 0
BITMAP
2000
5C00
4700
7880
F700
9900
5E00
9200
FB00
9500
9480
F300
ENDCHAR
STARTCHAR S
ENCODING 83
SWIDTH 442 0
DWIDTH 7 0
BBX 7 12 0 0
BITMAP
06
7A
B2
9C
50
28
28
2C
14
72
9A
F4
ENDCHAR
STARTCHAR T
ENCODING 84
SWIDTH 453 0
DWIDTH 7 0
BBX 7 11 0 0
BITMAP
FE
92
FE
38
28
28
28
38
28
28
38
ENDCHAR
STARTCHAR U
ENCODING 85
SWIDTH 583 0
DWIDTH 9 0
BBX 9 12 0 -1
BITMAP
7780
5480
5480
7380
5480
5280
7280
9380
9C80
9880
7F80
2000
ENDCHAR
STARTCHAR V
ENCODING 86
SWIDTH 506 0
DWIDTH 8 0
BBX 8 11 0 0
BITMAP
62
A5
A5
F7
99
5A
4E
7A
32
34
3C
ENDCHAR
STARTCHAR W
ENCODING 87
SWIDTH 735 0
DWIDTH 12 0
BBX 12 11 0 0
BITMAP
6060
A790
A9A0
FFE0
9520
54A0
4FA0
7360
3740
2740
3DC0
ENDCHAR
STARTCHAR X
ENCODING 88
SWIDTH 483 0
DWIDTH 8 0
BBX 8 11 0 0
BITMAP
66
A9
5A
5A
74
24
2C
5A
9A
A9
66
ENDCHAR
STARTCHAR Y
ENCODING 89
SWIDTH 484 0
DWIDTH 8 0
BBX 8 11 0 0
BITMAP
C7
A5
99
6E
4A
34
1C
24
28
48
30
ENDCHAR
STARTCHAR Z
ENCODING 90
SWIDTH 458 0
DWIDTH 7 0
BBX 7 11 0 0
BITMAP
7E
92
7E
1A
24
28
28
58
9E
B2
7C
ENDCHAR
STARTCHAR bracketleft
ENCODING 91
SWIDTH 420 0
DWIDTH 7 0
BBX 7 13 0 -1
BITMAP
3E
52
9C
50
70
90
90
90
F0
90
9C
92
7C
ENDCHAR
STARTCHAR backslash
ENCODING 92
SWIDTH 453 0
DWIDTH 7 0
BBX 7 11 0 0
BITMAP
60
90
50
70
48
28
2C
14
12
0A
0C
ENDCHAR
STARTCHAR bracketright
ENCODING 93
SWIDTH 420 0
DWIDTH 7 0
BBX 6 13 0 -1
BITMAP
F8
94
74
14
1C
14
14
14
1C
14
74
94
F8
ENDCHAR
STARTCHAR asciicircum
ENCODING 94
SWIDTH 353 0
DWIDTH 6 0
BBX 5 4 0 6
BITMAP
70
68
B8
48
ENDCHAR
STARTCHAR underscore
ENCODING 95
SWIDTH 499 0
DWIDTH 8 0
BBX 6 3 1 -4
BITMAP
FC
94
FC
ENDCHAR
STARTCHAR grave
ENCODING 96
SWIDTH 183 0
DWIDTH 3 0
BBX 3 4 0 12
BITMAP
40
A0
A0
60
ENDCHAR
STARTCHAR a
ENCODING 97
SWIDTH 507 0
DWIDTH 8 0
BBX 8 11 0 0
BITMAP
38
2C
2C
7A
4E
5A
7F
99
AF
B5
E7
ENDCHAR
STARTCHAR b
ENCODING 98
SWIDTH 533 0
DWIDTH 9 0
BBX 8 13 0 -1
BITMAP
30
4C
67
59
77
59
56
F9
9D
7B
4E
D8
20
ENDCHAR
STARTCHAR c
ENCODING 99
SWIDTH 515 0
DWIDTH 8 0
BBX 8 11 0 0
BITMAP
7F
49
7F
70
50
50
70
90
9F
99
7F
ENDCHAR
STARTCHAR d
ENCODING 100
SWIDTH 520 0
DWIDTH 8 0
BBX 8 12 0 0
BITMAP
10
E8
64
56
79
55
53
FD
96
52
9C
F0
ENDCHAR
STARTCHAR e
ENCODING 101
SWIDTH 490 0
DWIDTH 8 0
BBX 8 11 0 0
BITMAP
FF
59
5E
70
5C
52
FC
90
5E
99
FE
ENDCHAR
STARTCHAR f
ENCODING 102
SWIDTH 475 0
DWIDTH 8 0
BBX 8 11 0 0
BITMAP
FF
59
5E
70
5C
52
FC
90
50
90
F0
ENDCHAR
STARTCHAR g
ENCODING 103
SWIDTH 557 0
DWIDTH 9 0
BBX 9 11 0 0
BITMAP
7F00
4900
7F00
7000
5300
5480
7280
9380
9C80
9A80
7F80
ENDCHAR
STARTCHAR h
ENCODING 104
SWIDTH 611 0
DWIDTH 10 0
BBX 10 11 0 0
BITMAP
F780
5280
5280
7380
5280
5340
FE40
93C0
5E80
9480
F380
ENDCHAR
STARTCHAR i
ENCODING 105
SWIDTH 266 0
DWIDTH 4 0
BBX 4 11 0 0
BITMAP
F0
50
50
70
50
50
F0
90
50
90
F0
ENDCHAR
STARTCHAR j
ENCODING 106
SWIDTH 482 0
DWIDTH 8 0
BBX 7 12 0 -1
BITMAP
0E
0A
0A
0E
0A
4A
AE
9A
6A
26
16
18
ENDCHAR
STARTCHAR k
ENCODING 107
SWIDTH 541 0
DWIDTH 9 0
BBX 9 11 0 0
BITMAP
F300
5280
5C80
7500
5200
5400
FA00
9D00
5900
9480
F700
ENDCHAR
STARTCHAR l
ENCODING 108
SWIDTH 467 0
DWIDTH 7 0
BBX 8 11 0 0
BITMAP
F0
50
50
70
50
50
F0
90
5F
91
FF
ENDCHAR
STARTCHAR m
ENCODING 109
SWIDTH 733 0
DWIDTH 12 0
BBX 12 11 0 0
BITMAP
79C0
4940
5A40
77A0
5EE0
54A0
72A0
9F60
A950
A550
E670
ENDCHAR
STARTCHAR n
ENCODING 110
SWIDTH 598 0
DWIDTH 10 0
BBX 9 11 0 0
BITMAP
F380
5280
5A80
7B80
5680
5280
F780
9A80
5580
9480
F780
ENDCHAR
STARTCHAR o
ENCODING 111
SWIDTH 612 0
DWIDTH 10 0
BBX 10 11 0 0
BITMAP
7F80
4880
7E80
7380
5280
5280
7380
9280
9D80
94C0
7F80
ENDCHAR
STARTCHAR p
ENCODING 112
SWIDTH 513 0
DWIDTH 8 0
BBX 8 12 0 0
BITMAP
30
4C
47
79
77
99
5A
D4
B8
90
90
F0
ENDCHAR
STARTCHAR q
ENCODING 113
SWIDTH 612 0
DWIDTH 10 0
BBX 10 13 0 -2
BITMAP
7F80
4880
7E80
7380
5280
5280
7380
9280
9D80
94C0
6F80
1200
1E00
ENDCHAR
STARTCHAR r
ENCODING 114
SWIDTH 532 0
DWIDTH 9 0
BBX 9 12 0 0
BITMAP
2000
5C00
4700
7880
F700
9900
5E00
9200
FB00
9500
9480
F300
ENDCHAR
STARTCHAR s
ENCODING 115
SWIDTH 442 0
DWIDTH 7 0
BBX 7 12 0 0
BITMAP
06
7A
B2
9C
50
28
28
2C
14
72
9A
F4
ENDCHAR
STARTCHAR t
ENCODING 116
SWIDTH 453 0
DWIDTH 7 0
BBX 7 11 0 0
BITMAP
FE
92
FE
38
28
28
28
38
28
28
38
ENDCHAR
STARTCHAR u
ENCODING 117
SWIDTH 583 0
DWIDTH 9 0
BBX 9 12 0 -1
BITMAP
7780
5480
5480
7380
5480
5280
7280
9380
9C80
9880
7F80
2000
ENDCHAR
STARTCHAR v
ENCODING 118
SWIDTH 506 0
DWIDTH 8 0
BBX 8 11 0 0
BITMAP
62
A5
A5
F7
99
5A
4E
7A
32
34
3C
ENDCHAR
STARTCHAR w
ENCODING 119
SWIDTH 735 0
DWIDTH 12 0
BBX 12 11 0 0
BITMAP
6060
A790
A9A0
FFE0
9520
54A0
4FA0
7360
3740
2740
3DC0
ENDCHAR
STARTCHAR x
ENCODING 120
SWIDTH 483 0
DWIDTH 8 0
BBX 8 11 0 0
BITMAP
66
A9
5A
5A
74
24
2C
5A
9A
A9
66
ENDCHAR
STARTCHAR y
ENCODING 121
SWIDTH 484 0
DWIDTH 8 0
BBX 8 11 0 0
BITMAP
C7
A5
99
6E
4A
34
1C
24
28
48
30
ENDCHAR
STARTCHAR z
ENCODING 122
SWIDTH 458 0
DWIDTH 7 0
BBX 7 11 0 0
BITMAP
7E
92
7E
1A
24
28
28
58
9E
B2
7C
ENDCHAR
STARTCHAR braceleft
ENCODING 123
SWIDTH 473 0
DWIDTH 8 0
BBX 7 13 0 -1
BITMAP
3E
4A
2C
34
24
DC
8C
F4
38
28
4E
4A
3E
ENDCHAR
STARTCHAR bar
ENCODING 124
SWIDTH 263 0
DWIDTH 4 0
BBX 4 13 0 -1
BITMAP
70
50
50
50
B0
50
50
F0
90
90
90
90
60
ENDCHAR
STARTCHAR braceright
ENCODING 125
SWIDTH 473 0
DWIDTH 8 0
BBX 8 13 0 -1
BITMAP
F8
94
64
38
2A
75
21
3E
28
34
F4
94
F8
ENDCHAR
STARTCHAR asciitilde
ENCODING 126
SWIDTH 456 0
DWIDTH 7 0
BBX 7 4 0 4
BITMAP
36
5A
AC
D8
ENDCHAR
STARTCHAR nonbreakingspace
ENCODING 160
SWIDTH 200 0
DWIDTH 3 0
BBX 1 1 0 0
BITMAP
00
ENDCHAR
STARTCHAR exclamdown
ENCODING 161
SWIDTH 259 0
DWIDTH 4 0
BBX 4 11 0 0
BITMAP
70
50
20
60
50
50
90
F0
90
90
F0
ENDCHAR
STARTCHAR cent
ENCODING 162
SWIDTH 480 0
DWIDTH 8 0
BBX 7 15 0 -2
BITMAP
18
24
14
1A
6A
CC
B0
E0
A0
98
9E
6A
16
14
18
ENDCHAR
STARTCHAR sterling
ENCODING 163
SWIDTH 594 0
DWIDTH 10 0
BBX 9 11 0 0
BITMAP
1C00
2300
1100
2F00
7E00
AA00
EE00
3800
2F80
2C80
3F80
ENDCHAR
STARTCHAR currency
ENCODING 164
SWIDTH 640 0
DWIDTH 10 0
BBX 10 10 0 1
BITMAP
4080
AD40
9640
7D80
4B40
4A40
3580
D540
AB40
4480
ENDCHAR
STARTCHAR yen
ENCODING 165
SWIDTH 575 0
DWIDTH 9 0
BBX 9 11 0 0
BITMAP
6300
A280
5480
5F00
2900
3E00
4900
4B00
3400
2400
1800
ENDCHAR
STARTCHAR brokenbar
ENCODING 166
SWIDTH 258 0
DWIDTH 4 0
BBX 3 15 1 -2
BITMAP
40
A0
A0
E0
A0
A0
E0
00
C0
A0
A0
E0
A0
A0
C0
ENDCHAR
STARTCHAR section
ENCODING 167
SWIDTH 474 0
DWIDTH 8 0
BBX 6 11 1 0
BITMAP
FC
94
F8
AC
F4
B4
D8
A4
F4
9C
FC
ENDCHAR
STARTCHAR dieresis
ENCODING 168
SWIDTH 351 0
DWIDTH 6 0
BBX 6 2 0 12
BITMAP
FC
FC
ENDCHAR
STARTCHAR copyright
ENCODING 169
SWIDTH 719 0
DWIDTH 12 0
BBX 11 12 0 0
BITMAP
3F80
4960
7FA0
66A0
6960
AEA0
ACA0
6E60
ADA0
A2A0
BD60
7FC0
ENDCHAR
STARTCHAR ordfeminine
ENCODING 170
SWIDTH 455 0
DWIDTH 7 0
BBX 7 11 0 0
BITMAP
3C
54
54
7E
92
EA
DA
AA
7C
42
7C
ENDCHAR
STARTCHAR guillemotleft
ENCODING 171
SWIDTH 689 0
DWIDTH 11 0
BBX 11 7 0 2
BITMAP
18C0
6720
9C40
B380
CA40
2920
18C0
ENDCHAR
STARTCHAR logicalnot
ENCODING 172
SWIDTH 591 0
DWIDTH 9 0
BBX 9 6 0 1
BITMAP
7F00
8980
BE80
4280
0280
0380
ENDCHAR
STARTCHAR uni00AD
ENCODING 173
SWIDTH 465 0
DWIDTH 7 0
BBX 7 3 0 4
BITMAP
7E
8A
FE
ENDCHAR
STARTCHAR registered
ENCODING 174
SWIDTH 719 0
DWIDTH 12 0
BBX 11 12 0 0
BITMAP
3F80
4960
7FA0
60A0
6F60
AFA0
ACA0
6C60
ACA0
A2A0
BD60
7FC0
ENDCHAR
STARTCHAR macron
ENCODING 175
SWIDTH 263 0
DWIDTH 4 0
BBX 4 2 0 12
BITMAP
F0
F0
ENDCHAR
STARTCHAR degree
ENCODING 176
SWIDTH 333 0
DWIDTH 5 0
BBX 5 5 0 6
BITMAP
30
50
A8
58
78
ENDCHAR
STARTCHAR plusminus
ENCODING 177
SWIDTH 464 0
DWIDTH 7 0
BBX 7 11 0 -2
BITMAP
18
28
7E
8A
96
68
38
00
FE
8A
7E
ENDCHAR
STARTCHAR twosuperior
ENCODING 178
SWIDTH 324 0
DWIDTH 5 0
BBX 5 6 0 5
BITMAP
F8
C8
30
50
A8
78
ENDCHAR
STARTCHAR threesuperior
ENCODING 179
SWIDTH 332 0
DWIDTH 5 0
BBX 5 6 0 5
BITMAP
F8
88
78
58
A8
F8
ENDCHAR
STARTCHAR acute
ENCODING 180
SWIDTH 202 0
DWIDTH 3 0
BBX 3 3 0 12
BITMAP
60
A0
C0
ENDCHAR
STARTCHAR mu
ENCODING 181
SWIDTH 582 0
DWIDTH 9 0
BBX 9 13 0 -2
BITMAP
7780
5480
5480
5300
7480
5280
5280
5380
7D80
5880
5F80
9100
F000
ENDCHAR
STARTCHAR paragraph
ENCODING 182
SWIDTH 556 0
DWIDTH 9 0
BBX 8 12 0 0
BITMAP
06
19
71
8F
B7
CD
35
15
0F
05
05
07
ENDCHAR
STARTCHAR periodcentered
ENCODING 183
SWIDTH 215 0
DWIDTH 3 0
BBX 3 2 0 5
BITMAP
E0
E0
ENDCHAR
STARTCHAR cedilla
ENCODING 184
SWIDTH 237 0
DWIDTH 4 0
BBX 4 5 0 -4
BITMAP
30
30
50
A0
C0
ENDCHAR
STARTCHAR onesuperior
ENCODING 185
SWIDTH 286 0
DWIDTH 5 0
BBX 4 6 0 5
BITMAP
70
90
B0
70
30
30
ENDCHAR
STARTCHAR ordmasculine
ENCODING 186
SWIDTH 476 0
DWIDTH 8 0
BBX 7 11 0 0
BITMAP
FE
8E
FA
AA
AA
BE
CA
7E
7C
42
5C
ENDCHAR
STARTCHAR guillemotright
ENCODING 187
SWIDTH 689 0
DWIDTH 11 0
BBX 11 7 0 2
BITMAP
6300
9CC0
6720
38A0
4B60
9280
6100
ENDCHAR
STARTCHAR onequarter
ENCODING 188
SWIDTH 790 0
DWIDTH 13 0
BBX 12 11 0 0
BITMAP
3200
D500
AD00
6F00
2920
3A50
0EB0
0B70
0B50
0AF0
0430
ENDCHAR
STARTCHAR onehalf
ENCODING 189
SWIDTH 771 0
DWIDTH 12 0
BBX 12 11 0 0
BITMAP
3200
D500
AD00
6F00
2900
3BE0
0F10
0AF0
0AA0
0B50
04F0
ENDCHAR
STARTCHAR threequarters
ENCODING 190
SWIDTH 817 0
DWIDTH 13 0
BBX 13 11 0 0
BITMAP
F900
8A80
7A80
5F00
AD00
BD30
4568
07B8
0AC8
0AE8
0438
ENDCHAR
STARTCHAR questiondown
ENCODING 191
SWIDTH 455 0
DWIDTH 7 0
BBX 7 11 0 0
BITMAP
1C
14
08
1C
14
2C
4C
B0
9E
72
0E
ENDCHAR
STARTCHAR Agrave
ENCODING 192
SWIDTH 507 0
DWIDTH 8 0
BBX 8 16 0 0
BITMAP
10
28
28
18
00
38
2C
2C
7A
4E
5A
7F
99
AF
B5
E7
ENDCHAR
STARTCHAR Aacute
ENCODING 193
SWIDTH 507 0
DWIDTH 8 0
BBX 8 15 0 0
BITMAP
06
0C
08
00
38
2C
2C
7A
4E
5A
7F
99
AF
B5
E7
ENDCHAR
STARTCHAR Acircumflex
ENCODING 194
SWIDTH 507 0
DWIDTH 8 0
BBX 8 16 0 0
BITMAP
18
2C
2A
3E
00
38
2C
2C
7A
4E
5A
7F
99
AF
B5
E7
ENDCHAR
STARTCHAR Atilde
ENCODING 195
SWIDTH 507 0
DWIDTH 8 0
BBX 8 16 0 0
BITMAP
3F
35
56
6C
00
38
2C
2C
7A
4E
5A
7F
99
AF
B5
E7
ENDCHAR
STARTCHAR Adieresis
ENCODING 196
SWIDTH 507 0
DWIDTH 8 0
BBX 8 14 0 0
BITMAP
7E
7E
00
38
2C
2C
7A
4E
5A
7F
99
AF
B5
E7
ENDCHAR
STARTCHAR Aring
ENCODING 197
SWIDTH 507 0
DWIDTH 8 0
BBX 8 16 0 0
BITMAP
14
2C
3A
24
3C
28
2C
2C
7A
4E
5A
7F
99
AF
B5
E7
ENDCHAR
STARTCHAR AE
ENCODING 198
SWIDTH 797 0
DWIDTH 13 0
BBX 13 11 0 0
BITMAP
0FF8
0AC8
12F0
1780
2CE0
2C90
6FE0
5480
9CF0
A4C8
67F0
ENDCHAR
STARTCHAR Ccedilla
ENCODING 199
SWIDTH 515 0
DWIDTH 8 0
BBX 8 15 0 -4
BITMAP
7F
49
7F
70
50
50
70
90
9F
99
7F
0C
14
2C
10
ENDCHAR
STARTCHAR Egrave
ENCODING 200
SWIDTH 490 0
DWIDTH 8 0
BBX 8 16 0 0
BITMAP
10
28
18
18
20
DF
59
5E
70
5C
52
FC
90
5E
99
FE
ENDCHAR
STARTCHAR Eacute
ENCODING 201
SWIDTH 490 0
DWIDTH 8 0
BBX 8 15 0 0
BITMAP
0E
14
18
20
DF
59
5E
70
5C
52
FC
90
5E
99
FE
ENDCHAR
STARTCHAR Ecircumflex
ENCODING 202
SWIDTH 490 0
DWIDTH 8 0
BBX 8 16 0 0
BITMAP
18
2C
3A
2E
20
DF
59
5E
70
5C
52
FC
90
5E
99
FE
ENDCHAR
STARTCHAR Edieresis
ENCODING 203
SWIDTH 490 0
DWIDTH 8 0
BBX 8 14 0 0
BITMAP
7E
5E
20
DF
59
5E
70
5C
52
FC
90
5E
99
FE
ENDCHAR
STARTCHAR Igrave
ENCODING 204
SWIDTH 266 0
DWIDTH 4 0
BBX 4 16 0 0
BITMAP
40
C0
A0
60
20
D0
50
50
70
50
50
F0
90
50
90
F0
ENDCHAR
STARTCHAR Iacute
ENCODING 205
SWIDTH 266 0
DWIDTH 4 0
BBX 5 15 0 0
BITMAP
38
30
20
20
D0
50
50
70
50
50
F0
90
50
90
F0
ENDCHAR
STARTCHAR Icircumflex
ENCODING 206
SWIDTH 266 0
DWIDTH 4 0
BBX 5 16 0 0
BITMAP
60
50
A8
D8
20
D0
50
50
70
50
50
F0
90
50
90
F0
ENDCHAR
STARTCHAR Idieresis
ENCODING 207
SWIDTH 266 0
DWIDTH 4 0
BBX 6 14 -1 0
BITMAP
FC
FC
10
68
28
28
38
28
28
78
48
28
48
78
ENDCHAR
STARTCHAR Eth
ENCODING 208
SWIDTH 669 0
DWIDTH 11 0
BBX 11 12 0 0
BITMAP
0400
1A00
1900
1480
1B40
FD20
84E0
FD20
1740
1480
1500
1E00
ENDCHAR
STARTCHAR Ntilde
ENCODING 209
SWIDTH 598 0
DWIDTH 10 0
BBX 9 16 0 0
BITMAP
1F80
1A80
2B00
3600
0100
F280
5280
5A80
7B80
5680
5280
F780
9A80
5580
9480
F780
ENDCHAR
STARTCHAR Ograve
ENCODING 210
SWIDTH 612 0
DWIDTH 10 0
BBX 10 16 0 0
BITMAP
0800
1400
0C00
0C00
2000
5F80
4880
7E80
7380
5280
5280
7380
9280
9D80
94C0
7F80
ENDCHAR
STARTCHAR Oacute
ENCODING 211
SWIDTH 612 0
DWIDTH 10 0
BBX 10 15 0 0
BITMAP
0700
0600
0C00
2000
5F80
4880
7E80
7380
5280
5280
7380
9280
9D80
94C0
7F80
ENDCHAR
STARTCHAR Ocircumflex
ENCODING 212
SWIDTH 612 0
DWIDTH 10 0
BBX 10 16 0 0
BITMAP
0C00
1600
1500
1F00
2000
5F80
4880
7E80
7380
5280
5280
7380
9280
9D80
94C0
7F80
ENDCHAR
STARTCHAR Otilde
ENCODING 213
SWIDTH 612 0
DWIDTH 10 0
BBX 10 16 0 0
BITMAP
1D80
1680
2B00
3600
2000
5F80
4880
7E80
7380
5280
5280
7380
9280
9D80
94C0
7F80
ENDCHAR
STARTCHAR Odieresis
ENCODING 214
SWIDTH 612 0
DWIDTH 10 0
BBX 10 14 0 0
BITMAP
3F00
3F00
2000
5F80
4880
7E80
7380
5280
5280
7380
9280
9D80
94C0
7F80
ENDCHAR
STARTCHAR multiply
ENCODING 215
SWIDTH 421 0
DWIDTH 7 0
BBX 6 6 0 2
BITMAP
6C
94
48
74
94
68
ENDCHAR
STARTCHAR Oslash
ENCODING 216
SWIDTH 612 0
DWIDTH 10 0
BBX 10 12 0 -1
BITMAP
7F80
4A80
7C80
7580
5B80
5280
5780
AA80
AD80
D4C0
5F80
2000
ENDCHAR
STARTCHAR Ugrave
ENCODING 217
SWIDTH 583 0
DWIDTH 9 0
BBX 9 17 0 -1
BITMAP
1800
2800
1400
0800
0000
7780
5480
5480
7380
5480
5280
7280
9380
9C80
9880
7F80
2000
ENDCHAR
STARTCHAR Uacute
ENCODING 218
SWIDTH 583 0
DWIDTH 9 0
BBX 9 16 0 -1
BITMAP
0600
0A00
0C00
0000
7780
5480
5480
7380
5480
5280
7280
9380
9C80
9880
7F80
2000
ENDCHAR
STARTCHAR Ucircumflex
ENCODING 219
SWIDTH 583 0
DWIDTH 9 0
BBX 9 17 0 -1
BITMAP
1C00
1C00
2A00
3600
0000
7780
5480
5480
7380
5480
5280
7280
9380
9C80
9880
7F80
2000
ENDCHAR
STARTCHAR Udieresis
ENCODING 220
SWIDTH 583 0
DWIDTH 9 0
BBX 9 15 0 -1
BITMAP
3F00
3E00
0000
7780
5480
5480
7380
5480
5280
7280
9380
9C80
9880
7F80
2000
ENDCHAR
STARTCHAR Yacute
ENCODING 221
SWIDTH 484 0
DWIDTH 8 0
BBX 8 14 0 0
BITMAP
0E
14
18
C7
A5
99
6E
4A
34
1C
24
28
48
30
ENDCHAR
STARTCHAR Thorn
ENCODING 222
SWIDTH 520 0
DWIDTH 8 0
BBX 8 11 0 0
BITMAP
70
70
4C
67
99
57
D9
B6
58
90
F0
ENDCHAR
STARTCHAR germandbls
ENCODING 223
SWIDTH 884 0
DWIDTH 14 0
BBX 14 12 0 0
BITMAP
060C
7AF4
B36C
9D30
50A0
2850
2850
2C38
1428
72E4
9B34
F5F8
ENDCHAR
STARTCHAR agrave
ENCODING 224
SWIDTH 507 0
DWIDTH 8 0
BBX 8 16 0 0
BITMAP
10
28
28
18
00
38
2C
2C
7A
4E
5A
7F
99
AF
B5
E7
ENDCHAR
STARTCHAR aacute
ENCODING 225
SWIDTH 507 0
DWIDTH 8 0
BBX 8 15 0 0
BITMAP
06
0C
08
00
38
2C
2C
7A
4E
5A
7F
99
AF
B5
E7
ENDCHAR
STARTCHAR acircumflex
ENCODING 226
SWIDTH 507 0
DWIDTH 8 0
BBX 8 16 0 0
BITMAP
18
2C
2A
3E
00
38
2C
2C
7A
4E
5A
7F
99
AF
B5
E7
ENDCHAR
STARTCHAR atilde
ENCODING 227
SWIDTH 507 0
DWIDTH 8 0
BBX 8 16 0 0
BITMAP
3F
35
56
6C
00
38
2C
2C
7A
4E
5A
7F
99
AF
B5
E7
ENDCHAR
STARTCHAR adieresis
ENCODING 228
SWIDTH 507 0
DWIDTH 8 0
BBX 8 14 0 0
BITMAP
7E
7E
00
38
2C
2C
7A
4E
5A
7F
99
AF
B5
E7
ENDCHAR
STARTCHAR aring
ENCODING 229
SWIDTH 507 0
DWIDTH 8 0
BBX 8 16 0 0
BITMAP
14
2C
3A
24
3C
28
2C
2C
7A
4E
5A
7F
99
AF
B5
E7
ENDCHAR
STARTCHAR ae
ENCODING 230
SWIDTH 797 0
DWIDTH 13 0
BBX 13 11 0 0
BITMAP
0FF8
0AC8
12F0
1780
2CE0
2C90
6FE0
5480
9CF0
A4C8
67F0
ENDCHAR
STARTCHAR ccedilla
ENCODING 231
SWIDTH 515 0
DWIDTH 8 0
BBX 8 15 0 -4
BITMAP
7F
49
7F
70
50
50
70
90
9F
99
7F
0C
14
2C
10
ENDCHAR
STARTCHAR egrave
ENCODING 232
SWIDTH 490 0
DWIDTH 8 0
BBX 8 16 0 0
BITMAP
10
28
18
18
20
DF
59
5E
70
5C
52
FC
90
5E
99
FE
ENDCHAR
STARTCHAR eacute
ENCODING 233
SWIDTH 490 0
DWIDTH 8 0
BBX 8 15 0 0
BITMAP
0E
14
18
20
DF
59
5E
70
5C
52
FC
90
5E
99
FE
ENDCHAR
STARTCHAR ecircumflex
ENCODING 234
SWIDTH 490 0
DWIDTH 8 0
BBX 8 16 0 0
BITMAP
18
2C
3A
2E
20
DF
59
5E
70
5C
52
FC
90
5E
99
FE
ENDCHAR
STARTCHAR edieresis
ENCODING 235
SWIDTH 490 0
DWIDTH 8 0
BBX 8 14 0 0
BITMAP
7E
5E
20
DF
59
5E
70
5C
52
FC
90
5E
99
FE
ENDCHAR
STARTCHAR igrave
ENCODING 236
SWIDTH 266 0
DWIDTH 4 0
BBX 4 16 0 0
BITMAP
40
C0
A0
60
20
D0
50
50
70
50
50
F0
90
50
90
F0
ENDCHAR
STARTCHAR iacute
ENCODING 237
SWIDTH 266 0
DWIDTH 4 0
BBX 5 15 0 0
BITMAP
38
30
20
20
D0
50
50
70
50
50
F0
90
50
90
F0
ENDCHAR
STARTCHAR icircumflex
ENCODING 238
SWIDTH 266 0
DWIDTH 4 0
BBX 5 16 0 0
BITMAP
60
50
A8
D8
20
D0
50
50
70
50
50
F0
90
50
90
F0
ENDCHAR
STARTCHAR idieresis
ENCODING 239
SWIDTH 266 0
DWIDTH 4 0
BBX 6 14 -1 0
BITMAP
FC
FC
10
68
28
28
38
28
28
78
48
28
48
78
ENDCHAR
STARTCHAR eth
ENCODING 240
SWIDTH 669 0
DWIDTH 11 0
BBX 11 12 0 0
BITMAP
0400
1A00
1900
1480
1B40
FD20
84E0
FD20
1740
1480
1500
1E00
ENDCHAR
STARTCHAR ntilde
ENCODING 241
SWIDTH 598 0
DWIDTH 10 0
BBX 9 16 0 0
BITMAP
1F80
1A80
2B00
3600
0100
F280
5280
5A80
7B80
5680
5280
F780
9A80
5580
9480
F780
ENDCHAR
STARTCHAR ograve
ENCODING 242
SWIDTH 612 0
DWIDTH 10 0
BBX 10 16 0 0
BITMAP
0800
1400
0C00
0C00
2000
5F80
4880
7E80
7380
5280
5280
7380
9280
9D80
94C0
7F80
ENDCHAR
STARTCHAR oacute
ENCODING 243
SWIDTH 612 0
DWIDTH 10 0
BBX 10 15 0 0
BITMAP
0700
0600
0C00
2000
5F80
4880
7E80
7380
5280
5280
7380
9280
9D80
94C0
7F80
ENDCHAR
STARTCHAR ocircumflex
ENCODING 244
SWIDTH 612 0
DWIDTH 10 0
BBX 10 16 0 0
BITMAP
0C00
1600
1500
1F00
2000
5F80
4880
7E80
7380
5280
5280
7380
9280
9D80
94C0
7F80
ENDCHAR
STARTCHAR otilde
ENCODING 245
SWIDTH 612 0
DWIDTH 10 0
BBX 10 16 0 0
BITMAP
1D80
1680
2B00
3600
2000
5F80
4880
7E80
7380
5280
5280
7380
9280
9D80
94C0
7F80
ENDCHAR
STARTCHAR odieresis
ENCODING 246
SWIDTH 612 0
DWIDTH 10 0
BBX 10 14 0 0
BITMAP
3F00
3F00
2000
5F80
4880
7E80
7380
5280
5280
7380
9280
9D80
94C0
7F80
ENDCHAR
STARTCHAR divide
ENCODING 247
SWIDTH 457 0
DWIDTH 7 0
BBX 7 9 0 1
BITMAP
18
28
18
7E
8A
EE
10
28
38
ENDCHAR
STARTCHAR oslash
ENCODING 248
SWIDTH 612 0
DWIDTH 10 0
BBX 10 12 0 -1
BITMAP
7F80
4A80
7C80
7580
5B80
5280
5780
AA80
AD80
D4C0
5F80
2000
ENDCHAR
STARTCHAR ugrave
ENCODING 249
SWIDTH 583 0
DWIDTH 9 0
BBX 9 17 0 -1
BITMAP
1800
2800
1400
0800
0000
7780
5480
5480
7380
5480
5280
7280
9380
9C80
9880
7F80
2000
ENDCHAR
STARTCHAR uacute
ENCODING 250
SWIDTH 583 0
DWIDTH 9 0
BBX 9 16 0 -1
BITMAP
0600
0A00
0C00
0000
7780
5480
5480
7380
5480
5280
7280
9380
9C80
9880
7F80
2000
ENDCHAR
STARTCHAR ucircumflex
ENCODING 251
SWIDTH 583 0
DWIDTH 9 0
BBX 9 17 0 -1
BITMAP
1C00
1C00
2A00
3600
0000
7780
5480
5480
7380
5480
5280
7280
9380
9C80
9880
7F80
2000
ENDCHAR
STARTCHAR udieresis
ENCODING 252
SWIDTH 583 0
DWIDTH 9 0
BBX 9 15 0 -1
BITMAP
3F00
3E00
0000
7780
5480
5480
7380
5480
5280
7280
9380
9C80
9880
7F80
2000
ENDCHAR
STARTCHAR yacute
ENCODING 253
SWIDTH 484 0
DWIDTH 8 0
BBX 8 14 0 0
BITMAP
0E
14
18
C7
A5
99
6E
4A
34
1C
24
28
48
30
ENDCHAR
STARTCHAR thorn
ENCODING 254
SWIDTH 520 0
DWIDTH 8 0
BBX 8 11 0 0
BITMAP
70
70
4C
67
99
57
D9
B6
58
90
F0
ENDCHAR
STARTCHAR ydieresis
ENCODING 255
SWIDTH 484 0
DWIDTH 8 0
BBX 8 13 0 0
BITMAP
7E
7A
C5
A5
99
6E
4A
34
1C
24
28
48
30
ENDCHAR
STARTCHAR Amacron
ENCODING 256
SWIDTH 507 0
DWIDTH 8 0
BBX 8 14 0 0
BITMAP
3C
3C
00
38
2C
2C
7A
4E
5A
7F
99
AF
B5
E7
ENDCHAR
STARTCHAR amacron
ENCODING 257
SWIDTH 507 0
DWIDTH 8 0
BBX 8 14 0 0
BITMAP
3C
3C
00
38
2C
2C
7A
4E
5A
7F
99
AF
B5
E7
ENDCHAR
STARTCHAR Abreve
ENCODING 258
SWIDTH 507 0
DWIDTH 8 0
BBX 8 16 0 0
BITMAP
24
5A
34
3C
00
38
2C
2C
7A
4E
5A
7F
99
AF
B5
E7
ENDCHAR
STARTCHAR abreve
ENCODING 259
SWIDTH 507 0
DWIDTH 8 0
BBX 8 16 0 0
BITMAP
24
5A
34
3C
00
38
2C
2C
7A
4E
5A
7F
99
AF
B5
E7
ENDCHAR
STARTCHAR Aogonek
ENCODING 260
SWIDTH 507 0
DWIDTH 8 0
BBX 9 14 0 -3
BITMAP
3800
2C00
2C00
7A00
4E00
5B00
7E80
9880
AF00
B500
E700
0600
0700
0380
ENDCHAR
STARTCHAR aogonek
ENCODING 261
SWIDTH 507 0
DWIDTH 8 0
BBX 9 14 0 -3
BITMAP
3800
2C00
2C00
7A00
4E00
5B00
7E80
9880
AF00
B500
E700
0600
0700
0380
ENDCHAR
STARTCHAR Cacute
ENCODING 262
SWIDTH 515 0
DWIDTH 8 0
BBX 8 15 0 0
BITMAP
06
0A
0C
20
5F
49
7F
70
50
50
70
90
9F
99
7F
ENDCHAR
STARTCHAR cacute
ENCODING 263
SWIDTH 515 0
DWIDTH 8 0
BBX 8 15 0 0
BITMAP
06
0A
0C
20
5F
49
7F
70
50
50
70
90
9F
99
7F
ENDCHAR
STARTCHAR Ccircumflex
ENCODING 264
SWIDTH 515 0
DWIDTH 8 0
BBX 8 16 0 0
BITMAP
0C
16
2D
16
20
5F
49
7F
70
50
50
70
90
9F
99
7F
ENDCHAR
STARTCHAR ccircumflex
ENCODING 265
SWIDTH 515 0
DWIDTH 8 0
BBX 8 16 0 0
BITMAP
0C
16
2D
16
20
5F
49
7F
70
50
50
70
90
9F
99
7F
ENDCHAR
STARTCHAR Cdotaccent
ENCODING 266
SWIDTH 515 0
DWIDTH 8 0
BBX 8 14 0 0
BITMAP
1C
0C
20
5F
49
7F
70
50
50
70
90
9F
99
7F
ENDCHAR
STARTCHAR cdotaccent
ENCODING 267
SWIDTH 515 0
DWIDTH 8 0
BBX 8 14 0 0
BITMAP
1C
0C
20
5F
49
7F
70
50
50
70
90
9F
99
7F
ENDCHAR
STARTCHAR Ccaron
ENCODING 268
SWIDTH 515 0
DWIDTH 8 0
BBX 8 16 0 0
BITMAP
3F
1A
14
0C
20
5F
49
7F
70
50
50
70
90
9F
99
7F
ENDCHAR
STARTCHAR ccaron
ENCODING 269
SWIDTH 515 0
DWIDTH 8 0
BBX 8 16 0 0
BITMAP
3F
1A
14
0C
20
5F
49
7F
70
50
50
70
90
9F
99
7F
ENDCHAR
STARTCHAR Dcaron
ENCODING 270
SWIDTH 520 0
DWIDTH 8 0
BBX 8 16 0 0
BITMAP
7E
2A
2C
18
10
E8
64
56
79
55
53
FD
96
52
9C
F0
ENDCHAR
STARTCHAR dcaron
ENCODING 271
SWIDTH 520 0
DWIDTH 8 0
BBX 8 16 0 0
BITMAP
7E
2A
2C
18
10
E8
64
56
79
55
53
FD
96
52
9C
F0
ENDCHAR
STARTCHAR Dcroat
ENCODING 272
SWIDTH 669 0
DWIDTH 11 0
BBX 11 12 0 0
BITMAP
0400
1A00
1900
1480
1B40
FD20
84E0
FD20
1740
1480
1500
1E00
ENDCHAR
STARTCHAR dcroat
ENCODING 273
SWIDTH 669 0
DWIDTH 11 0
BBX 11 12 0 0
BITMAP
0400
1A00
1900
1480
1B40
FD20
84E0
FD20
1740
1480
1500
1E00
ENDCHAR
STARTCHAR Emacron
ENCODING 274
SWIDTH 490 0
DWIDTH 8 0
BBX 8 14 0 0
BITMAP
3C
3C
20
DF
59
5E
70
5C
52
FC
90
5E
99
FE
ENDCHAR
STARTCHAR emacron
ENCODING 275
SWIDTH 490 0
DWIDTH 8 0
BBX 8 14 0 0
BITMAP
3C
3C
20
DF
59
5E
70
5C
52
FC
90
5E
99
FE
ENDCHAR
STARTCHAR Ebreve
ENCODING 276
SWIDTH 490 0
DWIDTH 8 0
BBX 8 16 0 0
BITMAP
36
36
3C
3C
20
DF
59
5E
70
5C
52
FC
90
5E
99
FE
ENDCHAR
STARTCHAR ebreve
ENCODING 277
SWIDTH 490 0
DWIDTH 8 0
BBX 8 16 0 0
BITMAP
36
36
3C
3C
20
DF
59
5E
70
5C
52
FC
90
5E
99
FE
ENDCHAR
STARTCHAR Edotaccent
ENCODING 278
SWIDTH 490 0
DWIDTH 8 0
BBX 8 14 0 0
BITMAP
38
18
20
DF
59
5E
70
5C
52
FC
90
5E
99
FE
ENDCHAR
STARTCHAR edotaccent
ENCODING 279
SWIDTH 490 0
DWIDTH 8 0
BBX 8 14 0 0
BITMAP
38
18
20
DF
59
5E
70
5C
52
FC
90
5E
99
FE
ENDCHAR
STARTCHAR Eogonek
ENCODING 280
SWIDTH 490 0
DWIDTH 8 0
BBX 8 14 0 -3
BITMAP
FF
59
5E
70
5C
52
FC
90
5E
99
FE
0C
0E
07
ENDCHAR
STARTCHAR eogonek
ENCODING 281
SWIDTH 490 0
DWIDTH 8 0
BBX 8 14 0 -3
BITMAP
FF
59
5E
70
5C
52
FC
90
5E
99
FE
0C
0E
07
ENDCHAR
STARTCHAR Ecaron
ENCODING 282
SWIDTH 490 0
DWIDTH 8 0
BBX 8 15 0 0
BITMAP
36
2A
1C
38
DF
59
5E
70
5C
52
FC
90
5E
99
FE
ENDCHAR
STARTCHAR ecaron
ENCODING 283
SWIDTH 490 0
DWIDTH 8 0
BBX 8 15 0 0
BITMAP
36
2A
1C
38
DF
59
5E
70
5C
52
FC
90
5E
99
FE
ENDCHAR
STARTCHAR Gcircumflex
ENCODING 284
SWIDTH 557 0
DWIDTH 9 0
BBX 9 16 0 0
BITMAP
0C00
1400
2A00
3600
2000
5F00
4900
7F00
7000
5300
5480
7280
9380
9C80
9A80
7F80
ENDCHAR
STARTCHAR gcircumflex
ENCODING 285
SWIDTH 557 0
DWIDTH 9 0
BBX 9 16 0 0
BITMAP
0C00
1400
2A00
3600
2000
5F00
4900
7F00
7000
5300
5480
7280
9380
9C80
9A80
7F80
ENDCHAR
STARTCHAR Gbreve
ENCODING 286
SWIDTH 557 0
DWIDTH 9 0
BBX 9 16 0 0
BITMAP
3600
3600
2A00
1E00
2000
5F00
4900
7F00
7000
5300
5480
7280
9380
9C80
9A80
7F80
ENDCHAR
STARTCHAR gbreve
ENCODING 287
SWIDTH 557 0
DWIDTH 9 0
BBX 9 16 0 0
BITMAP
3600
3600
2A00
1E00
2000
5F00
4900
7F00
7000
5300
5480
7280
9380
9C80
9A80
7F80
ENDCHAR
STARTCHAR Gdotaccent
ENCODING 288
SWIDTH 557 0
DWIDTH 9 0
BBX 9 14 0 0
BITMAP
1C00
0C00
2000
5F00
4900
7F00
7000
5300
5480
7280
9380
9C80
9A80
7F80
ENDCHAR
STARTCHAR gdotaccent
ENCODING 289
SWIDTH 557 0
DWIDTH 9 0
BBX 9 14 0 0
BITMAP
1C00
0C00
2000
5F00
4900
7F00
7000
5300
5480
7280
9380
9C80
9A80
7F80
ENDCHAR
STARTCHAR Gcommaaccent
ENCODING 290
SWIDTH 557 0
DWIDTH 9 0
BBX 9 15 0 -4
BITMAP
7F00
4900
7F00
7000
5300
5480
7280
9380
9C80
9A80
7F80
0800
1400
1800
3000
ENDCHAR
STARTCHAR gcommaaccent
ENCODING 291
SWIDTH 557 0
DWIDTH 9 0
BBX 9 15 0 -4
BITMAP
7F00
4900
7F00
7000
5300
5480
7280
9380
9C80
9A80
7F80
0800
1400
1800
3000
ENDCHAR
STARTCHAR Hcircumflex
ENCODING 292
SWIDTH 611 0
DWIDTH 10 0
BBX 10 16 0 0
BITMAP
0C00
1400
2A00
3600
2100
D680
5280
5280
7380
5280
5340
FE40
93C0
5E80
9480
F380
ENDCHAR
STARTCHAR hcircumflex
ENCODING 293
SWIDTH 611 0
DWIDTH 10 0
BBX 10 16 0 0
BITMAP
0C00
1400
2A00
3600
2100
D680
5280
5280
7380
5280
5340
FE40
93C0
5E80
9480
F380
ENDCHAR
STARTCHAR Hbar
ENCODING 294
SWIDTH 706 0
DWIDTH 11 0
BBX 11 11 0 0
BITMAP
7BC0
6940
AFA0
B920
4FE0
29A0
7F20
49C0
4F40
4A40
79C0
ENDCHAR
STARTCHAR hbar
ENCODING 295
SWIDTH 706 0
DWIDTH 11 0
BBX 11 11 0 0
BITMAP
7BC0
6940
AFA0
B920
4FE0
29A0
7F20
49C0
4F40
4A40
79C0
ENDCHAR
STARTCHAR Itilde
ENCODING 296
SWIDTH 266 0
DWIDTH 4 0
BBX 7 16 -1 0
BITMAP
7E
5A
AC
D8
10
68
28
28
38
28
28
78
48
28
48
78
ENDCHAR
STARTCHAR itilde
ENCODING 297
SWIDTH 266 0
DWIDTH 4 0
BBX 7 16 -1 0
BITMAP
7E
5A
AC
D8
10
68
28
28
38
28
28
78
48
28
48
78
ENDCHAR
STARTCHAR Imacron
ENCODING 298
SWIDTH 266 0
DWIDTH 4 0
BBX 4 14 0 0
BITMAP
F0
F0
20
D0
50
50
70
50
50
F0
90
50
90
F0
ENDCHAR
STARTCHAR imacron
ENCODING 299
SWIDTH 266 0
DWIDTH 4 0
BBX 4 14 0 0
BITMAP
F0
F0
20
D0
50
50
70
50
50
F0
90
50
90
F0
ENDCHAR
STARTCHAR Ibreve
ENCODING 300
SWIDTH 266 0
DWIDTH 4 0
BBX 5 16 0 0
BITMAP
D8
D8
F0
F0
20
D0
50
50
70
50
50
F0
90
50
90
F0
ENDCHAR
STARTCHAR ibreve
ENCODING 301
SWIDTH 266 0
DWIDTH 4 0
BBX 5 16 0 0
BITMAP
D8
D8
F0
F0
20
D0
50
50
70
50
50
F0
90
50
90
F0
ENDCHAR
STARTCHAR Iogonek
ENCODING 302
SWIDTH 266 0
DWIDTH 4 0
BBX 4 15 0 -4
BITMAP
F0
50
50
70
50
50
F0
90
50
90
D0
A0
A0
50
20
ENDCHAR
STARTCHAR iogonek
ENCODING 303
SWIDTH 266 0
DWIDTH 4 0
BBX 4 15 0 -4
BITMAP
F0
50
50
70
50
50
F0
90
50
90
D0
A0
A0
50
20
ENDCHAR
STARTCHAR Idotaccent
ENCODING 304
SWIDTH 266 0
DWIDTH 4 0
BBX 4 14 0 0
BITMAP
70
60
20
D0
50
50
70
50
50
F0
90
50
90
F0
ENDCHAR
STARTCHAR dotlessi
ENCODING 305
SWIDTH 266 0
DWIDTH 4 0
BBX 4 11 0 0
BITMAP
F0
50
50
70
50
50
F0
90
50
90
F0
ENDCHAR
STARTCHAR IJ
ENCODING 306
SWIDTH 750 0
DWIDTH 12 0
BBX 12 12 0 -1
BITMAP
F0F0
5090
5090
70E0
5090
54A0
FAF0
9990
56A0
9250
F160
0080
ENDCHAR
STARTCHAR ij
ENCODING 307
SWIDTH 749 0
DWIDTH 12 0
BBX 12 12 0 -1
BITMAP
F0F0
5090
5090
70E0
5090
54A0
FAF0
9990
56A0
9250
F160
0080
ENDCHAR
STARTCHAR Jcircumflex
ENCODING 308
SWIDTH 484 0
DWIDTH 8 0
BBX 8 17 0 -1
BITMAP
0E
0A
15
1B
04
0B
0A
0A
0E
0A
4A
AE
9A
6A
26
16
18
ENDCHAR
STARTCHAR jcircumflex
ENCODING 309
SWIDTH 482 0
DWIDTH 8 0
BBX 8 17 0 -1
BITMAP
0E
0A
15
1B
04
0B
0A
0A
0E
0A
4A
AE
9A
6A
26
16
18
ENDCHAR
STARTCHAR Kcommaaccent
ENCODING 310
SWIDTH 541 0
DWIDTH 9 0
BBX 9 15 0 -4
BITMAP
F300
5280
5C80
7500
5200
5400
FA00
9D00
5900
9480
F700
0800
1400
2800
3000
ENDCHAR
STARTCHAR kcommaaccent
ENCODING 311
SWIDTH 541 0
DWIDTH 9 0
BBX 9 15 0 -4
BITMAP
F300
5280
5C80
7500
5200
5400
FA00
9D00
5900
9480
F700
0800
1400
2800
3000
ENDCHAR
STARTCHAR kgreenlandic
ENCODING 312
SWIDTH 541 0
DWIDTH 9 0
BBX 9 11 0 0
BITMAP
F300
5280
5C80
7500
5200
5400
FA00
9D00
5900
9480
F700
ENDCHAR
STARTCHAR Lacute
ENCODING 313
SWIDTH 467 0
DWIDTH 7 0
BBX 8 15 0 0
BITMAP
18
28
30
20
D0
50
50
70
50
50
F0
90
5F
91
FF
ENDCHAR
STARTCHAR lacute
ENCODING 314
SWIDTH 467 0
DWIDTH 7 0
BBX 8 15 0 0
BITMAP
18
28
30
20
D0
50
50
70
50
50
F0
90
5F
91
FF
ENDCHAR
STARTCHAR Lcommaaccent
ENCODING 315
SWIDTH 467 0
DWIDTH 7 0
BBX 8 15 0 -4
BITMAP
F0
50
50
70
50
50
F0
90
5F
91
FF
10
28
30
20
ENDCHAR
STARTCHAR lcommaaccent
ENCODING 316
SWIDTH 467 0
DWIDTH 7 0
BBX 8 15 0 -4
BITMAP
F0
50
50
70
50
50
F0
90
5F
91
FF
10
28
30
20
ENDCHAR
STARTCHAR Lcaron
ENCODING 317
SWIDTH 467 0
DWIDTH 7 0
BBX 8 12 0 0
BITMAP
26
DA
5C
50
70
50
50
F0
90
5F
91
FF
ENDCHAR
STARTCHAR lcaron
ENCODING 318
SWIDTH 467 0
DWIDTH 7 0
BBX 8 12 0 0
BITMAP
26
DA
5C
50
70
50
50
F0
90
5F
91
FF
ENDCHAR
STARTCHAR Ldot
ENCODING 319
SWIDTH 611 0
DWIDTH 10 0
BBX 9 11 0 0
BITMAP
F000
5000
5000
7000
5180
5180
F000
9000
5F00
9100
FF00
ENDCHAR
STARTCHAR ldotaccent
ENCODING 320
SWIDTH 611 0
DWIDTH 10 0
BBX 9 11 0 0
BITMAP
F000
5000
5000
7000
5180
5180
F000
9000
5F00
9100
FF00
ENDCHAR
STARTCHAR Lslash
ENCODING 321
SWIDTH 505 0
DWIDTH 8 0
BBX 8 11 0 0
BITMAP
78
50
50
68
D4
D4
F8
50
5F
59
7F
ENDCHAR
STARTCHAR lslash
ENCODING 322
SWIDTH 505 0
DWIDTH 8 0
BBX 8 11 0 0
BITMAP
78
50
50
68
D4
D4
F8
50
5F
59
7F
ENDCHAR
STARTCHAR Nacute
ENCODING 323
SWIDTH 598 0
DWIDTH 10 0
BBX 9 14 0 0
BITMAP
0700
0A00
0D00
F280
5280
5A80
7B80
5680
5280
F780
9A80
5580
9480
F780
ENDCHAR
STARTCHAR nacute
ENCODING 324
SWIDTH 598 0
DWIDTH 10 0
BBX 9 14 0 0
BITMAP
0700
0A00
0D00
F280
5280
5A80
7B80
5680
5280
F780
9A80
5580
9480
F780
ENDCHAR
STARTCHAR Ncommaaccent
ENCODING 325
SWIDTH 598 0
DWIDTH 10 0
BBX 9 15 0 -4
BITMAP
F380
5280
5A80
7B80
5680
5280
F780
9A80
5580
9480
F780
0800
1400
1800
1000
ENDCHAR
STARTCHAR ncommaaccent
ENCODING 326
SWIDTH 598 0
DWIDTH 10 0
BBX 9 15 0 -4
BITMAP
F380
5280
5A80
7B80
5680
5280
F780
9A80
5580
9480
F780
0800
1400
1800
1000
ENDCHAR
STARTCHAR Ncaron
ENCODING 327
SWIDTH 598 0
DWIDTH 10 0
BBX 9 15 0 0
BITMAP
3F00
1A00
1400
0D00
F280
5280
5A80
7B80
5680
5280
F780
9A80
5580
9480
F780
ENDCHAR
STARTCHAR ncaron
ENCODING 328
SWIDTH 598 0
DWIDTH 10 0
BBX 9 15 0 0
BITMAP
3F00
1A00
1400
0D00
F280
5280
5A80
7B80
5680
5280
F780
9A80
5580
9480
F780
ENDCHAR
STARTCHAR napostrophe
ENCODING 329
SWIDTH 807 0
DWIDTH 13 0
BBX 12 11 0 0
BITMAP
6F70
AB50
CAD0
0DF0
0A50
0A50
0DD0
0B30
0AB0
0A90
0E70
ENDCHAR
STARTCHAR Eng
ENCODING 330
SWIDTH 595 0
DWIDTH 10 0
BBX 9 15 0 -4
BITMAP
F380
5280
5A80
7A80
5780
5280
F680
9A80
5580
9480
F780
0B80
3480
4700
3800
ENDCHAR
STARTCHAR eng
ENCODING 331
SWIDTH 595 0
DWIDTH 10 0
BBX 9 15 0 -4
BITMAP
F380
5280
5A80
7A80
5780
5280
F680
9A80
5580
9480
F780
0B80
3480
4700
3800
ENDCHAR
STARTCHAR Omacron
ENCODING 332
SWIDTH 612 0
DWIDTH 10 0
BBX 10 14 0 0
BITMAP
1E00
1E00
2000
5F80
4880
7E80
7380
5280
5280
7380
9280
9D80
94C0
7F80
ENDCHAR
STARTCHAR omacron
ENCODING 333
SWIDTH 612 0
DWIDTH 10 0
BBX 10 14 0 0
BITMAP
1E00
1E00
2000
5F80
4880
7E80
7380
5280
5280
7380
9280
9D80
94C0
7F80
ENDCHAR
STARTCHAR Obreve
ENCODING 334
SWIDTH 612 0
DWIDTH 10 0
BBX 10 16 0 0
BITMAP
1200
2D00
1A00
1E00
2000
5F80
4880
7E80
7380
5280
5280
7380
9280
9D80
94C0
7F80
ENDCHAR
STARTCHAR obreve
ENCODING 335
SWIDTH 612 0
DWIDTH 10 0
BBX 10 16 0 0
BITMAP
1200
2D00
1A00
1E00
2000
5F80
4880
7E80
7380
5280
5280
7380
9280
9D80
94C0
7F80
ENDCHAR
STARTCHAR Ohungarumlaut
ENCODING 336
SWIDTH 612 0
DWIDTH 10 0
BBX 10 15 0 0
BITMAP
0F80
1700
1A00
2000
5F80
4880
7E80
7380
5280
5280
7380
9280
9D80
94C0
7F80
ENDCHAR
STARTCHAR ohungarumlaut
ENCODING 337
SWIDTH 612 0
DWIDTH 10 0
BBX 10 15 0 0
BITMAP
0F80
1700
1A00
2000
5F80
4880
7E80
7380
5280
5280
7380
9280
9D80
94C0
7F80
ENDCHAR
STARTCHAR OE
ENCODING 338
SWIDTH 831 0
DWIDTH 13 0
BBX 13 11 0 0
BITMAP
7FF8
49A8
7F78
7380
5270
5290
7360
9280
9DF8
99C8
7FF8
ENDCHAR
STARTCHAR oe
ENCODING 339
SWIDTH 831 0
DWIDTH 13 0
BBX 13 11 0 0
BITMAP
7FF8
49A8
7F78
7380
5270
5290
7360
9280
9DF8
99C8
7FF8
ENDCHAR
STARTCHAR Racute
ENCODING 340
SWIDTH 532 0
DWIDTH 9 0
BBX 9 14 0 0
BITMAP
0600
0A00
2C00
5C00
4700
7880
F700
9900
5E00
9200
FB00
9500
9480
F300
ENDCHAR
STARTCHAR racute
ENCODING 341
SWIDTH 532 0
DWIDTH 9 0
BBX 9 14 0 0
BITMAP
0600
0A00
2C00
5C00
4700
7880
F700
9900
5E00
9200
FB00
9500
9480
F300
ENDCHAR
STARTCHAR Rcommaaccent
ENCODING 342
SWIDTH 532 0
DWIDTH 9 0
BBX 9 16 0 -4
BITMAP
2000
5C00
4700
7880
F700
9900
5E00
9200
FB00
9500
9480
9300
6800
1400
2800
3000
ENDCHAR
STARTCHAR rcommaaccent
ENCODING 343
SWIDTH 532 0
DWIDTH 9 0
BBX 9 16 0 -4
BITMAP
2000
5C00
4700
7880
F700
9900
5E00
9200
FB00
9500
9480
9300
6800
1400
2800
3000
ENDCHAR
STARTCHAR Rcaron
ENCODING 344
SWIDTH 532 0
DWIDTH 9 0
BBX 9 16 0 0
BITMAP
3600
2A00
1400
1800
2000
5C00
4700
7880
F700
9900
5E00
9200
FB00
9500
9480
F300
ENDCHAR
STARTCHAR rcaron
ENCODING 345
SWIDTH 532 0
DWIDTH 9 0
BBX 9 16 0 0
BITMAP
3600
2A00
1400
1800
2000
5C00
4700
7880
F700
9900
5E00
9200
FB00
9500
9480
F300
ENDCHAR
STARTCHAR Sacute
ENCODING 346
SWIDTH 442 0
DWIDTH 7 0
BBX 7 15 0 0
BITMAP
1C
18
38
06
7A
B2
9C
50
28
28
2C
14
72
9A
F4
ENDCHAR
STARTCHAR sacute
ENCODING 347
SWIDTH 442 0
DWIDTH 7 0
BBX 7 15 0 0
BITMAP
1C
18
38
06
7A
B2
9C
50
28
28
2C
14
72
9A
F4
ENDCHAR
STARTCHAR Scircumflex
ENCODING 348
SWIDTH 442 0
DWIDTH 7 0
BBX 7 16 0 0
BITMAP
38
38
54
6C
06
7A
B2
9C
50
28
28
2C
14
72
9A
F4
ENDCHAR
STARTCHAR scircumflex
ENCODING 349
SWIDTH 442 0
DWIDTH 7 0
BBX 7 16 0 0
BITMAP
38
38
54
6C
06
7A
B2
9C
50
28
28
2C
14
72
9A
F4
ENDCHAR
STARTCHAR Scedilla
ENCODING 350
SWIDTH 442 0
DWIDTH 7 0
BBX 7 15 0 -3
BITMAP
06
7A
B2
9C
50
28
28
2C
14
72
9A
FC
18
38
70
ENDCHAR
STARTCHAR scedilla
ENCODING 351
SWIDTH 442 0
DWIDTH 7 0
BBX 7 15 0 -3
BITMAP
06
7A
B2
9C
50
28
28
2C
14
72
9A
FC
18
38
70
ENDCHAR
STARTCHAR Scaron
ENCODING 352
SWIDTH 442 0
DWIDTH 7 0
BBX 7 16 0 0
BITMAP
6C
54
38
30
06
7A
B2
9C
50
28
28
2C
14
72
9A
F4
ENDCHAR
STARTCHAR scaron
ENCODING 353
SWIDTH 442 0
DWIDTH 7 0
BBX 7 16 0 0
BITMAP
6C
54
38
30
06
7A
B2
9C
50
28
28
2C
14
72
9A
F4
ENDCHAR
STARTCHAR Tcommaaccent
ENCODING 354
SWIDTH 453 0
DWIDTH 7 0
BBX 7 15 0 -4
BITMAP
FE
92
FE
38
28
28
28
38
28
28
28
10
28
50
60
ENDCHAR
STARTCHAR tcommaaccent
ENCODING 355
SWIDTH 453 0
DWIDTH 7 0
BBX 7 15 0 -4
BITMAP
FE
92
FE
38
28
28
28
38
28
28
28
10
28
50
60
ENDCHAR
STARTCHAR Tcaron
ENCODING 356
SWIDTH 453 0
DWIDTH 7 0
BBX 7 16 0 0
BITMAP
7C
54
28
18
00
FE
92
FE
38
28
28
28
38
28
28
38
ENDCHAR
STARTCHAR tcaron
ENCODING 357
SWIDTH 453 0
DWIDTH 7 0
BBX 7 16 0 0
BITMAP
7C
54
28
18
00
FE
92
FE
38
28
28
28
38
28
28
38
ENDCHAR
STARTCHAR Tbar
ENCODING 358
SWIDTH 455 0
DWIDTH 7 0
BBX 7 11 0 0
BITMAP
FE
92
FE
28
78
96
82
7C
28
28
38
ENDCHAR
STARTCHAR tbar
ENCODING 359
SWIDTH 455 0
DWIDTH 7 0
BBX 7 11 0 0
BITMAP
FE
92
FE
28
78
96
82
7C
28
28
38
ENDCHAR
STARTCHAR Utilde
ENCODING 360
SWIDTH 583 0
DWIDTH 9 0
BBX 9 17 0 -1
BITMAP
1F80
1A80
2B00
3600
0000
7780
5480
5480
7380
5480
5280
7280
9380
9C80
9880
7F80
2000
ENDCHAR
STARTCHAR utilde
ENCODING 361
SWIDTH 583 0
DWIDTH 9 0
BBX 9 17 0 -1
BITMAP
1F80
1A80
2B00
3600
0000
7780
5480
5480
7380
5480
5280
7280
9380
9C80
9880
7F80
2000
ENDCHAR
STARTCHAR Umacron
ENCODING 362
SWIDTH 583 0
DWIDTH 9 0
BBX 9 15 0 -1
BITMAP
1E00
1E00
0000
7780
5480
5480
7380
5480
5280
7280
9380
9C80
9880
7F80
2000
ENDCHAR
STARTCHAR umacron
ENCODING 363
SWIDTH 583 0
DWIDTH 9 0
BBX 9 15 0 -1
BITMAP
1E00
1E00
0000
7780
5480
5480
7380
5480
5280
7280
9380
9C80
9880
7F80
2000
ENDCHAR
STARTCHAR Ubreve
ENCODING 364
SWIDTH 583 0
DWIDTH 9 0
BBX 9 17 0 -1
BITMAP
3600
3600
2A00
1E00
0000
7780
5480
5480
7380
5480
5280
7280
9380
9C80
9880
7F80
2000
ENDCHAR
STARTCHAR ubreve
ENCODING 365
SWIDTH 583 0
DWIDTH 9 0
BBX 9 17 0 -1
BITMAP
3600
3600
2A00
1E00
0000
7780
5480
5480
7380
5480
5280
7280
9380
9C80
9880
7F80
2000
ENDCHAR
STARTCHAR Uring
ENCODING 366
SWIDTH 583 0
DWIDTH 9 0
BBX 9 18 0 -1
BITMAP
0C00
1400
2A00
1600
1E00
0000
7780
5480
5480
7380
5480
5280
7280
9380
9C80
9880
7F80
2000
ENDCHAR
STARTCHAR uring
ENCODING 367
SWIDTH 583 0
DWIDTH 9 0
BBX 9 18 0 -1
BITMAP
0C00
1400
2A00
1600
1E00
0000
7780
5480
5480
7380
5480
5280
7280
9380
9C80
9880
7F80
2000
ENDCHAR
STARTCHAR Uhungarumlaut
ENCODING 368
SWIDTH 583 0
DWIDTH 9 0
BBX 9 16 0 -1
BITMAP
1F80
1D00
1600
0000
7780
5480
5480
7380
5480
5280
7280
9380
9C80
9880
7F80
2000
ENDCHAR
STARTCHAR uhungarumlaut
ENCODING 369
SWIDTH 583 0
DWIDTH 9 0
BBX 9 16 0 -1
BITMAP
1F80
1D00
1600
0000
7780
5480
5480
7380
5480
5280
7280
9380
9C80
9880
7F80
2000
ENDCHAR
STARTCHAR Uogonek
ENCODING 370
SWIDTH 583 0
DWIDTH 9 0
BBX 9 15 0 -4
BITMAP
7780
5480
5480
7380
5480
5280
7280
9380
9C80
9880
7F80
2300
0500
0280
0180
ENDCHAR
STARTCHAR uogonek
ENCODING 371
SWIDTH 583 0
DWIDTH 9 0
BBX 9 15 0 -4
BITMAP
7780
5480
5480
7380
5480
5280
7280
9380
9C80
9880
7F80
2300
0500
0280
0180
ENDCHAR
STARTCHAR Wcircumflex
ENCODING 372
SWIDTH 735 0
DWIDTH 12 0
BBX 12 15 0 0
BITMAP
0600
0A00
1500
1B00
6060
A790
A9A0
FFE0
9520
54A0
4FA0
7360
3740
2740
3DC0
ENDCHAR
STARTCHAR wcircumflex
ENCODING 373
SWIDTH 735 0
DWIDTH 12 0
BBX 12 15 0 0
BITMAP
0600
0A00
1500
1B00
6060
A790
A9A0
FFE0
9520
54A0
4FA0
7360
3740
2740
3DC0
ENDCHAR
STARTCHAR Ycircumflex
ENCODING 374
SWIDTH 484 0
DWIDTH 8 0
BBX 8 15 0 0
BITMAP
18
28
54
6C
C7
A5
99
6E
4A
34
1C
24
28
48
30
ENDCHAR
STARTCHAR ycircumflex
ENCODING 375
SWIDTH 484 0
DWIDTH 8 0
BBX 8 15 0 0
BITMAP
18
28
54
6C
C7
A5
99
6E
4A
34
1C
24
28
48
30
ENDCHAR
STARTCHAR Ydieresis
ENCODING 376
SWIDTH 484 0
DWIDTH 8 0
BBX 8 13 0 0
BITMAP
7E
7A
C5
A5
99
6E
4A
34
1C
24
28
48
30
ENDCHAR
STARTCHAR Zacute
ENCODING 377
SWIDTH 458 0
DWIDTH 7 0
BBX 7 15 0 0
BITMAP
0C
14
18
00
7E
92
7E
1A
24
28
28
58
9E
B2
7C
ENDCHAR
STARTCHAR zacute
ENCODING 378
SWIDTH 458 0
DWIDTH 7 0
BBX 7 15 0 0
BITMAP
0C
14
18
00
7E
92
7E
1A
24
28
28
58
9E
B2
7C
ENDCHAR
STARTCHAR Zdotaccent
ENCODING 379
SWIDTH 458 0
DWIDTH 7 0
BBX 7 14 0 0
BITMAP
38
38
00
7E
92
7E
1A
24
28
28
58
9E
B2
7C
ENDCHAR
STARTCHAR zdotaccent
ENCODING 380
SWIDTH 458 0
DWIDTH 7 0
BBX 7 14 0 0
BITMAP
38
38
00
7E
92
7E
1A
24
28
28
58
9E
B2
7C
ENDCHAR
STARTCHAR Zcaron
ENCODING 381
SWIDTH 458 0
DWIDTH 7 0
BBX 7 16 0 0
BITMAP
7C
54
28
18
00
7E
92
7E
1A
24
28
28
58
9E
B2
7C
ENDCHAR
STARTCHAR zcaron
ENCODING 382
SWIDTH 458 0
DWIDTH 7 0
BBX 7 16 0 0
BITMAP
7C
54
28
18
00
7E
92
7E
1A
24
28
28
58
9E
B2
7C
ENDCHAR
STARTCHAR AEacute
ENCODING 508
SWIDTH 797 0
DWIDTH 13 0
BBX 13 15 0 0
BITMAP
0180
0280
0300
0000
0FF8
0AC8
12F0
1780
2CE0
2C90
6FE0
5480
9CF0
A4C8
67F0
ENDCHAR
STARTCHAR aeacute
ENCODING 509
SWIDTH 797 0
DWIDTH 13 0
BBX 13 15 0 0
BITMAP
0180
0280
0300
0000
0FF8
0AC8
12F0
1780
2CE0
2C90
6FE0
5480
9CF0
A4C8
67F0
ENDCHAR
STARTCHAR Oslashacute
ENCODING 510
SWIDTH 612 0
DWIDTH 10 0
BBX 10 16 0 -1
BITMAP
0700
0A00
0C00
2000
5F80
4A80
7C80
7580
5B80
5280
5780
AA80
AD80
D4C0
5F80
2000
ENDCHAR
STARTCHAR oslashacute
ENCODING 511
SWIDTH 612 0
DWIDTH 10 0
BBX 10 16 0 -1
BITMAP
0700
0A00
0C00
2000
5F80
4A80
7C80
7580
5B80
5280
5780
AA80
AD80
D4C0
5F80
2000
ENDCHAR
STARTCHAR dotlessj
ENCODING 567
SWIDTH 482 0
DWIDTH 8 0
BBX 7 12 0 -1
BITMAP
0E
0A
0A
0E
0A
4A
AE
9A
6A
26
16
18
ENDCHAR
STARTCHAR circumflex
ENCODING 710
SWIDTH 308 0
DWIDTH 5 0
BBX 5 4 0 12
BITMAP
70
70
A8
D8
ENDCHAR
STARTCHAR caron
ENCODING 711
SWIDTH 310 0
DWIDTH 5 0
BBX 5 4 0 12
BITMAP
D8
A8
50
60
ENDCHAR
STARTCHAR breve
ENCODING 728
SWIDTH 333 0
DWIDTH 5 0
BBX 5 4 0 12
BITMAP
D8
D8
A8
78
ENDCHAR
STARTCHAR dotaccent
ENCODING 729
SWIDTH 166 0
DWIDTH 3 0
BBX 3 2 0 12
BITMAP
E0
E0
ENDCHAR
STARTCHAR ring
ENCODING 730
SWIDTH 309 0
DWIDTH 5 0
BBX 5 5 0 12
BITMAP
50
68
A8
D8
70
ENDCHAR
STARTCHAR ogonek
ENCODING 731
SWIDTH 226 0
DWIDTH 4 0
BBX 4 5 0 -4
BITMAP
60
A0
A0
50
20
ENDCHAR
STARTCHAR tilde
ENCODING 732
SWIDTH 410 0
DWIDTH 7 0
BBX 7 4 0 12
BITMAP
7E
6A
AC
D8
ENDCHAR
STARTCHAR hungarumlaut
ENCODING 733
SWIDTH 361 0
DWIDTH 6 0
BBX 6 3 0 12
BITMAP
7C
A8
F8
ENDCHAR
STARTCHAR uni0312
ENCODING 786
SWIDTH 202 0
DWIDTH 3 0
BBX 3 3 0 8
BITMAP
60
A0
C0
ENDCHAR
STARTCHAR uni0315
ENCODING 789
SWIDTH 202 0
DWIDTH 3 0
BBX 3 3 0 8
BITMAP
60
A0
C0
ENDCHAR
STARTCHAR uni0326
ENCODING 806
SWIDTH 201 0
DWIDTH 3 0
BBX 3 3 0 -4
BITMAP
60
A0
C0
ENDCHAR
STARTCHAR Wgrave
ENCODING 7808
SWIDTH 735 0
DWIDTH 12 0
BBX 12 15 0 0
BITMAP
0400
0C00
0A00
0600
6060
A790
A9A0
FFE0
9520
54A0
4FA0
7360
3740
2740
3DC0
ENDCHAR
STARTCHAR wgrave
ENCODING 7809
SWIDTH 735 0
DWIDTH 12 0
BBX 12 15 0 0
BITMAP
0400
0C00
0A00
0600
6060
A790
A9A0
FFE0
9520
54A0
4FA0
7360
3740
2740
3DC0
ENDCHAR
STARTCHAR Wacute
ENCODING 7810
SWIDTH 735 0
DWIDTH 12 0
BBX 12 14 0 0
BITMAP
0380
0500
0600
6060
A790
A9A0
FFE0
9520
54A0
4FA0
7360
3740
2740
3DC0
ENDCHAR
STARTCHAR wacute
ENCODING 7811
SWIDTH 735 0
DWIDTH 12 0
BBX 12 14 0 0
BITMAP
0380
0500
0600
6060
A790
A9A0
FFE0
9520
54A0
4FA0
7360
3740
2740
3DC0
ENDCHAR
STARTCHAR Wdieresis
ENCODING 7812
SWIDTH 735 0
DWIDTH 12 0
BBX 12 13 0 0
BITMAP
1F80
1F80
6060
A790
A9A0
FFE0
9520
54A0
4FA0
7360
3740
2740
3DC0
ENDCHAR
STARTCHAR wdieresis
ENCODING 7813
SWIDTH 735 0
DWIDTH 12 0
BBX 12 13 0 0
BITMAP
1F80
1F80
6060
A790
A9A0
FFE0
9520
54A0
4FA0
7360
3740
2740
3DC0
ENDCHAR
STARTCHAR Ygrave
ENCODING 7922
SWIDTH 484 0
DWIDTH 8 0
BBX 8 15 0 0
BITMAP
10
30
28
18
C7
A5
99
6E
4A
34
1C
24
28
48
30
ENDCHAR
STARTCHAR ygrave
ENCODING 7923
SWIDTH 484 0
DWIDTH 8 0
BBX 8 15 0 0
BITMAP
10
30
28
18
C7
A5
99
6E
4A
34
1C
24
28
48
30
ENDCHAR
STARTCHAR endash
ENCODING 8211
SWIDTH 591 0
DWIDTH 9 0
BBX 9 3 0 4
BITMAP
FF80
9280
FF80
ENDCHAR
STARTCHAR emdash
ENCODING 8212
SWIDTH 726 0
DWIDTH 12 0
BBX 11 3 0 4
BITMAP
7FE0
8920
FFE0
ENDCHAR
STARTCHAR quoteleft
ENCODING 8216
SWIDTH 291 0
DWIDTH 5 0
BBX 5 7 0 5
BITMAP
30
28
50
70
90
A0
60
ENDCHAR
STARTCHAR quoteright
ENCODING 8217
SWIDTH 291 0
DWIDTH 5 0
BBX 5 7 0 5
BITMAP
30
28
50
70
90
A0
60
ENDCHAR
STARTCHAR quotesinglbase
ENCODING 8218
SWIDTH 228 0
DWIDTH 4 0
BBX 3 4 0 -2
BITMAP
60
A0
A0
C0
ENDCHAR
STARTCHAR quotedblleft
ENCODING 8220
SWIDTH 532 0
DWIDTH 9 0
BBX 9 7 0 5
BITMAP
3300
2C80
5500
7B00
9A00
AA00
6600
ENDCHAR
STARTCHAR quotedblright
ENCODING 8221
SWIDTH 532 0
DWIDTH 9 0
BBX 9 7 0 5
BITMAP
3300
2C80
5500
7B00
9A00
AA00
6600
ENDCHAR
STARTCHAR quotedblbase
ENCODING 8222
SWIDTH 448 0
DWIDTH 7 0
BBX 7 4 0 -2
BITMAP
6E
92
A4
DC
ENDCHAR
STARTCHAR dagger
ENCODING 8224
SWIDTH 453 0
DWIDTH 7 0
BBX 7 13 0 -1
BITMAP
38
28
66
AA
FE
28
28
38
28
28
28
28
18
ENDCHAR
STARTCHAR daggerdbl
ENCODING 8225
SWIDTH 462 0
DWIDTH 7 0
BBX 7 13 0 -1
BITMAP
38
28
66
AA
BE
68
28
78
AE
AA
6E
28
18
ENDCHAR
STARTCHAR bullet
ENCODING 8226
SWIDTH 275 0
DWIDTH 4 0
BBX 2 2 1 5
BITMAP
C0
C0
ENDCHAR
STARTCHAR ellipsis
ENCODING 8230
SWIDTH 605 0
DWIDTH 10 0
BBX 9 2 0 0
BITMAP
FD80
FD80
ENDCHAR
STARTCHAR perthousand
ENCODING 8240
SWIDTH 1249 0
DWIDTH 20 0
BBX 20 11 0 0
BITMAP
F98000
AD4000
B68000
B78000
D68000
7AFBE0
03AEB0
05B6D0
05B7D0
055250
027DE0
ENDCHAR
STARTCHAR guilsinglleft
ENCODING 8249
SWIDTH 359 0
DWIDTH 6 0
BBX 5 7 0 2
BITMAP
18
68
90
B0
C8
28
18
ENDCHAR
STARTCHAR guilsinglright
ENCODING 8250
SWIDTH 359 0
DWIDTH 6 0
BBX 5 7 0 2
BITMAP
60
90
68
38
48
90
60
ENDCHAR
STARTCHAR fraction
ENCODING 8260
SWIDTH 266 0
DWIDTH 4 0
BBX 4 11 0 0
BITMAP
30
30
50
70
50
60
E0
A0
A0
A0
40
ENDCHAR
STARTCHAR Euro
ENCODING 8364
SWIDTH 690 0
DWIDTH 11 0
BBX 11 11 0 0
BITMAP
1FC0
1120
2FC0
5A00
5400
7400
9C00
9440
67A0
2520
1FC0
ENDCHAR
STARTCHAR partialdiff
ENCODING 8706
SWIDTH 519 0
DWIDTH 8 0
BBX 8 11 0 0
BITMAP
1C
14
12
0E
1A
6A
AE
F9
8D
65
1F
ENDCHAR
STARTCHAR minus
ENCODING 8722
SWIDTH 467 0
DWIDTH 7 0
BBX 7 3 0 4
BITMAP
7E
8A
FE
ENDCHAR
STARTCHAR fi
ENCODING 64257
SWIDTH 741 0
DWIDTH 12 0
BBX 11 11 0 0
BITMAP
FFE0
59A0
5EA0
70E0
5CA0
52A0
FCE0
90A0
50A0
90A0
F0E0
ENDCHAR
STARTCHAR fl
ENCODING 64258
SWIDTH 942 0
DWIDTH 15 0
BBX 15 11 0 0
BITMAP
FFF0
59A0
5EA0
70D0
5CA0
52A0
FCE0
90A0
509E
90B2
F0FE
ENDCHAR
STARTCHAR .notdef
ENCODING -1
SWIDTH 200 0
DWIDTH 3 0
BBX 1 1 0 0
BITMAP
00
ENDCHAR
STARTCHAR .null
ENCODING -1
SWIDTH 0 0
DWIDTH 0 0
BBX 1 1 0 0
BITMAP
00
ENDCHAR
STARTCHAR nonmarkingreturn
ENCODING -1
SWIDTH 200 0
DWIDTH 3 0
BBX 1 1 0 0
BITMAP
00
ENDCHAR
ENDFONT
